<?xml version="1.0" encoding="utf-8"?>
<!-- Designed by Vexels.com - 2020 All Rights Reserved - https://vexels.com/terms-and-conditions/  -->
<svg version="1.1" id="Capa_1" xmlns="http://www.w3.org/2000/svg" xmlns:xlink="http://www.w3.org/1999/xlink" x="0px" y="0px"
	 viewBox="0 0 1200 1200" enable-background="new 0 0 1200 1200" xml:space="preserve">
<g>
	<path fill="none" d="M203.432,584.389c-0.007-0.002-0.015-0.003-0.022-0.004c0.009,0.002,0.016,0.003,0.026,0.005L203.432,584.389z
		"/>
	<path fill="#F6DAA8" d="M898.457,969.316c0-0.061-0.002-0.118-0.002-0.178c0-0.022-0.002-0.048-0.002-0.069
		c-0.002-0.073-0.002-0.144-0.004-0.216c0-0.012,0-0.016,0-0.027c-0.002-0.08-0.004-0.168-0.005-0.25c0-0.016,0-0.026,0-0.043
		c-0.002-0.068-0.004-0.138-0.005-0.205c0-0.02,0-0.038,0-0.058c-0.002-0.076-0.004-0.152-0.005-0.228c0-0.007,0-0.011,0-0.02
		c-0.004-0.083-0.005-0.172-0.007-0.256c0-0.008,0-0.02,0-0.027c-0.002-0.077-0.004-0.15-0.007-0.225c0-0.016,0-0.029,0-0.046
		c-0.002-0.073-0.004-0.146-0.007-0.219c0-0.011,0-0.026,0-0.038c-0.004-0.086-0.005-0.168-0.007-0.256c0-0.003,0-0.011,0-0.013
		c-0.004-0.079-0.005-0.155-0.009-0.234c0-0.016,0-0.037-0.002-0.053c-0.002-0.077-0.004-0.15-0.007-0.227c0-0.008,0-0.015,0-0.024
		c-0.007-0.174-0.013-0.353-0.02-0.528c0-0.005,0-0.008,0-0.015c-0.004-0.088-0.007-0.174-0.009-0.261v-0.003
		c-0.007-0.181-0.015-0.361-0.024-0.542v-0.003c-0.726-16.866-4.239-36.156-9.967-57.21c-9.547-35.09-25.253-75.081-44.49-116.922
		l154.612-206.531c-36.014,7.063-120.517,24.387-213.143,48.612l2.658,47.634c21.589,39.518,42.068,79.683,59.423,118.12
		c0.514,1.141,1.042,2.288,1.552,3.425c2.49,5.559,4.899,11.072,7.247,16.548c0.609,1.42,1.205,2.832,1.804,4.246
		c2.217,5.233,4.381,10.433,6.452,15.573c0.186,0.461,0.384,0.929,0.568,1.387c2.186,5.449,4.253,10.817,6.262,16.143
		c0.505,1.34,1.007,2.676,1.499,4.007c1.958,5.281,3.846,10.512,5.608,15.652c0.247,0.716,0.468,1.415,0.711,2.128
		c1.577,4.657,3.062,9.243,4.469,13.769c0.347,1.119,0.706,2.245,1.042,3.354c1.495,4.927,2.884,9.773,4.157,14.524
		c0.258,0.966,0.49,1.91,0.738,2.868c1.111,4.272,2.128,8.468,3.042,12.58c0.168,0.752,0.356,1.522,0.517,2.268
		c0.974,4.536,1.802,8.95,2.521,13.273c0.164,0.985,0.311,1.956,0.461,2.93c0.654,4.245,1.216,8.414,1.601,12.429
		c0.013,0.143,0.037,0.292,0.049,0.435c0.43,4.603,0.682,9.052,0.737,13.33c-0.002-0.08-0.004-0.16-0.004-0.24
		C898.459,969.366,898.459,969.339,898.457,969.316z"/>
	<path fill="#F6DAA8" d="M907.917,942.536c-0.013,0.037-0.026,0.073-0.038,0.11C907.891,942.609,907.904,942.572,907.917,942.536z"
		/>
	<path fill="#F6DAA8" d="M903.221,956.216c-0.002,0.006-0.004,0.013-0.005,0.019C903.217,956.229,903.219,956.222,903.221,956.216z"
		/>
	<path fill="#F6DAA8" d="M999.272,584.236c-0.232,0.046-0.519,0.103-0.757,0.149l-1.777,12.636
		C997.693,592.257,998.543,587.963,999.272,584.236z"/>
	<path fill="#F6DAA8" d="M908.337,941.289c1.373-4.078,2.734-8.183,4.087-12.31c0.234-0.714,0.462-1.437,0.696-2.151
		c1.199-3.678,2.391-7.368,3.573-11.077c0.466-1.46,0.925-2.932,1.389-4.398c0.936-2.967,1.872-5.937,2.797-8.919
		c0.528-1.704,1.053-3.412,1.577-5.121c0.854-2.777,1.704-5.558,2.546-8.346c0.534-1.766,1.067-3.532,1.598-5.303
		c0.839-2.799,1.671-5.602,2.5-8.409c0.506-1.717,1.013-3.434,1.517-5.153c0.863-2.953,1.718-5.908,2.57-8.864
		c0.45-1.559,0.903-3.115,1.347-4.673c1.049-3.667,2.086-7.332,3.115-10.998c0.232-0.822,0.466-1.642,0.696-2.464
		c1.272-4.545,2.528-9.085,3.769-13.619c0.271-0.986,0.534-1.966,0.802-2.951c0.96-3.52,1.914-7.035,2.855-10.542
		c0.402-1.496,0.797-2.986,1.195-4.478c0.799-2.997,1.592-5.987,2.378-8.968c0.428-1.63,0.854-3.252,1.278-4.877
		c0.749-2.868,1.493-5.725,2.228-8.574c0.411-1.59,0.821-3.177,1.226-4.762c0.777-3.021,1.541-6.028,2.301-9.028
		c0.344-1.354,0.687-2.711,1.027-4.06c0.828-3.285,1.643-6.547,2.453-9.798c0.269-1.083,0.543-2.174,0.812-3.255
		c2.142-8.649,4.215-17.165,6.215-25.517c0.241-1.009,0.475-2,0.717-3.005c0.757-3.177,1.51-6.334,2.245-9.458
		c0.278-1.175,0.548-2.333,0.823-3.5c0.678-2.887,1.349-5.753,2.007-8.59c0.3-1.292,0.598-2.574,0.894-3.856
		c0.627-2.717,1.247-5.408,1.855-8.074c0.283-1.233,0.565-2.462,0.843-3.682c0.638-2.803,1.263-5.564,1.881-8.304
		c0.221-0.983,0.446-1.978,0.665-2.952c0.744-3.312,1.471-6.569,2.182-9.781c0.08-0.362,0.164-0.734,0.245-1.093
		c1.623-7.325,3.159-14.365,4.613-21.102c0.154-0.715,0.3-1.403,0.453-2.11c0.563-2.618,1.115-5.194,1.651-7.713
		c0.17-0.792,0.333-1.563,0.499-2.345c0.497-2.347,0.985-4.65,1.459-6.904c0.179-0.855,0.356-1.699,0.534-2.541
		c0.441-2.106,0.87-4.158,1.289-6.174c0.179-0.858,0.356-1.718,0.532-2.559c0.417-2.013,0.819-3.959,1.21-5.875
		c0.143-0.694,0.291-1.407,0.431-2.088c1.024-5.006,1.97-9.677,2.822-13.929v-0.005
		C983.933,660.926,951.288,813.728,908.337,941.289z"/>
	<path fill="#EDBA6E" d="M998.49,584.39l-0.002,0.001L843.876,790.922c19.236,41.841,34.943,81.832,44.49,116.922
		c5.728,21.054,9.242,40.343,9.967,57.21v0.003c0.009,0.181,0.016,0.361,0.024,0.542v0.003c0.002,0.088,0.005,0.174,0.009,0.261
		c0,0.006,0,0.009,0,0.015c0.007,0.175,0.013,0.355,0.02,0.528c0,0.009,0,0.016,0,0.024c0.004,0.077,0.005,0.15,0.007,0.227
		c0.002,0.016,0.002,0.037,0.002,0.053c0.004,0.079,0.005,0.155,0.009,0.234c0,0.002,0,0.01,0,0.013
		c0.002,0.088,0.004,0.17,0.007,0.256c0,0.012,0,0.027,0,0.038c0.004,0.073,0.005,0.146,0.007,0.219c0,0.016,0,0.029,0,0.046
		c0.004,0.075,0.005,0.148,0.007,0.225c0,0.007,0,0.019,0,0.027c0.002,0.084,0.004,0.173,0.007,0.256c0,0.009,0,0.013,0,0.02
		c0.002,0.076,0.004,0.152,0.005,0.228c0,0.019,0,0.037,0,0.058c0.002,0.067,0.004,0.137,0.005,0.205c0,0.016,0,0.026,0,0.043
		c0.002,0.081,0.004,0.169,0.005,0.25c0,0.011,0,0.016,0,0.027c0.002,0.071,0.002,0.143,0.004,0.216
		c0,0.022,0.002,0.047,0.002,0.069c0,0.06,0.002,0.117,0.002,0.178c0.002,0.023,0.002,0.049,0.002,0.071
		c0,0.08,0.002,0.16,0.004,0.24c0.046-0.13,0.095-0.265,0.143-0.395c0.022-0.064,0.048-0.134,0.071-0.199
		c0.024-0.069,0.049-0.138,0.075-0.207c0.02-0.057,0.044-0.124,0.066-0.182c0.024-0.069,0.053-0.149,0.077-0.218
		c0.027-0.073,0.047-0.129,0.073-0.202c0.026-0.069,0.049-0.136,0.075-0.206c0.024-0.065,0.04-0.115,0.064-0.18
		c0.026-0.069,0.053-0.149,0.079-0.218c0.024-0.065,0.046-0.127,0.069-0.192c0.024-0.069,0.055-0.155,0.08-0.225
		c0.02-0.057,0.042-0.115,0.062-0.172c0.024-0.069,0.051-0.144,0.075-0.214c0.024-0.064,0.055-0.15,0.077-0.215
		c0.026-0.069,0.047-0.129,0.073-0.198c0.02-0.058,0.044-0.126,0.064-0.183c0.026-0.069,0.049-0.14,0.075-0.209
		c0.026-0.073,0.053-0.148,0.08-0.221c0.018-0.052,0.038-0.112,0.059-0.164c0.027-0.082,0.055-0.155,0.084-0.236
		c0.018-0.053,0.037-0.108,0.057-0.159c0.027-0.082,0.06-0.169,0.09-0.25c0.018-0.052,0.037-0.105,0.055-0.157
		c0.029-0.081,0.055-0.151,0.084-0.232c0.02-0.061,0.04-0.117,0.062-0.177c0.029-0.082,0.055-0.155,0.084-0.237
		c0.013-0.035,0.018-0.052,0.031-0.087c0.113-0.318,0.221-0.623,0.334-0.941c0.018-0.052,0.044-0.123,0.062-0.175
		c0.02-0.057,0.037-0.102,0.057-0.159c0.027-0.079,0.055-0.156,0.082-0.235c0.027-0.073,0.053-0.147,0.079-0.221
		c0.022-0.061,0.044-0.12,0.064-0.182c0.029-0.081,0.062-0.171,0.091-0.252c0.018-0.053,0.029-0.084,0.047-0.137
		c0.031-0.09,0.057-0.162,0.09-0.251c0.02-0.061,0.038-0.109,0.06-0.17c0.026-0.074,0.057-0.164,0.082-0.237
		c0.016-0.044,0.037-0.103,0.053-0.146c0.033-0.099,0.064-0.184,0.099-0.281c0.013-0.035,0.026-0.073,0.038-0.108
		c0.037-0.107,0.069-0.199,0.108-0.305c0.009-0.027,0.018-0.054,0.027-0.08c0.035-0.098,0.073-0.208,0.108-0.307
		c0.018-0.052,0.031-0.089,0.049-0.141c0.029-0.082,0.053-0.152,0.082-0.233c0.022-0.061,0.044-0.124,0.066-0.186
		c0.029-0.082,0.055-0.154,0.082-0.236c0.016-0.044,0.031-0.085,0.046-0.129c0.254-0.722,0.506-1.443,0.759-2.167
		c0.016-0.044,0.029-0.08,0.044-0.124c0.024-0.066,0.046-0.13,0.068-0.196c0.029-0.079,0.053-0.151,0.08-0.23
		c0.004-0.009,0.007-0.018,0.011-0.027c0.002-0.006,0.004-0.013,0.005-0.019c0.013-0.035,0.026-0.07,0.037-0.103
		c0.031-0.089,0.057-0.161,0.086-0.249c0.027-0.075,0.048-0.135,0.073-0.21c0.022-0.061,0.048-0.133,0.069-0.196
		c0.022-0.066,0.046-0.133,0.069-0.199c0.022-0.062,0.051-0.146,0.073-0.208c0.026-0.075,0.049-0.146,0.075-0.221
		c0.022-0.061,0.046-0.131,0.068-0.192c0.022-0.066,0.046-0.133,0.069-0.199c0.022-0.061,0.048-0.135,0.068-0.197
		c0.029-0.082,0.058-0.168,0.088-0.25c0.015-0.044,0.031-0.091,0.047-0.135c0.026-0.075,0.059-0.17,0.084-0.245
		c0.024-0.069,0.053-0.154,0.079-0.225c0.018-0.058,0.036-0.111,0.058-0.168c0.038-0.115,0.077-0.225,0.117-0.34
		c0.005-0.016,0.011-0.032,0.016-0.048c0.037-0.106,0.069-0.202,0.106-0.308c0.018-0.049,0.031-0.09,0.049-0.139
		c0.027-0.08,0.055-0.161,0.082-0.241c0.016-0.049,0.042-0.118,0.058-0.167c0.018-0.053,0.038-0.111,0.057-0.164
		c0.057-0.165,0.115-0.336,0.172-0.502c0.018-0.053,0.037-0.103,0.055-0.156c0.031-0.091,0.06-0.175,0.091-0.267
		c0.013-0.036,0.031-0.09,0.044-0.125c0.027-0.083,0.053-0.156,0.082-0.239c0.02-0.062,0.044-0.127,0.064-0.189
		c0.026-0.075,0.051-0.143,0.077-0.218c0.018-0.053,0.044-0.129,0.062-0.182c0.022-0.066,0.044-0.132,0.068-0.198
		c0.031-0.089,0.057-0.167,0.088-0.256c0.015-0.041,0.027-0.081,0.042-0.122c0.031-0.089,0.062-0.179,0.091-0.268
		c0.018-0.05,0.042-0.122,0.06-0.172c0.027-0.08,0.06-0.18,0.088-0.26c0.016-0.049,0.035-0.101,0.053-0.151
		c0.026-0.079,0.057-0.169,0.084-0.25c0.02-0.058,0.04-0.119,0.06-0.176c0.027-0.08,0.058-0.171,0.086-0.251
		c0.02-0.059,0.037-0.107,0.057-0.164c0.024-0.071,0.049-0.143,0.073-0.214c0.026-0.075,0.046-0.135,0.071-0.21
		c0.027-0.08,0.055-0.161,0.082-0.24c0.02-0.058,0.035-0.103,0.055-0.162c0.027-0.08,0.062-0.179,0.09-0.26
		c0.016-0.049,0.035-0.105,0.051-0.155c0.047-0.133,0.088-0.254,0.133-0.388l0.004-0.013c0.146-0.428,0.287-0.842,0.433-1.27
		c0.013-0.042,0.024-0.072,0.037-0.113c0.035-0.099,0.069-0.201,0.102-0.3c0.011-0.033,0.027-0.079,0.038-0.113
		c0.037-0.107,0.073-0.212,0.108-0.32c0.009-0.025,0.018-0.053,0.027-0.077c0.09-0.269,0.177-0.525,0.269-0.793
		c0.002-0.007,0.005-0.018,0.007-0.027c0.042-0.119,0.082-0.241,0.122-0.362c0.013-0.037,0.026-0.073,0.038-0.11
		c0.135-0.4,0.271-0.802,0.404-1.201c0.005-0.016,0.011-0.029,0.016-0.046c42.951-127.561,75.596-280.363,88.398-344.254
		l0.004-0.015l1.777-12.636v-0.001L998.49,584.39z"/>
	<path fill="#EAAC3D" d="M567.092,431.275h-37.359c0.188,17.609,0.658,36.02,1.42,55.202
		C544.858,465.043,557.121,446.308,567.092,431.275z"/>
	<path fill="#EAAC3D" d="M601.497,262.82H542.28c-1.737,0-3.357-0.446-4.815-1.17c-1.02,9.019-1.973,18.369-2.826,28.159
		c-0.983,11.284-1.841,23.116-2.561,35.454h69.484h69.892c-1.331-22.995-3.157-44.287-5.381-63.907
		c-1.588,0.906-3.4,1.465-5.359,1.465H601.497z"/>
	<path fill="#EAAC3D" d="M601.713,50c-0.766,0-1.523,0.09-2.288,0.115c-2.488,3.334-6.715,9.534-11.892,19.265
		c-8.242,15.488-18.888,39.912-28.751,75.916c-1.003,3.662-2.008,7.517-3.01,11.51h45.725h46.19l-0.077-0.388
		c-0.849-3.36-1.702-6.662-2.565-9.841c-16.239-59.865-34.533-87.872-41.006-96.459C603.263,50.091,602.493,50,601.713,50z"/>
	<path fill="#EAAC3D" d="M673.732,431.275h-37.398c9.975,15.038,22.24,33.78,35.952,55.221
		C673.055,467.327,673.533,448.916,673.732,431.275z"/>
	<path fill="#EAAC3D" d="M448.451,479.747l-3.705,66.39h27.708h21.291c5.82-9.472,11.535-18.682,17.101-27.57
		c-0.725-13.241-1.311-26.14-1.769-38.714h-27.032h-32.541C449.143,479.853,448.802,479.781,448.451,479.747z"/>
	<path fill="#EAAC3D" d="M525.281,193.933c0.229-1.226,0.463-2.415,0.695-3.625c0.248-1.613,0.463-3.231,0.723-4.841
		c2.121-13.137,4.874-25.888,8.242-38.202h-20.688h-25.589c-7.469,15.179-13.643,30.998-18.226,46.596h21.581h32.541
		L525.281,193.933z"/>
	<path fill="#EAAC3D" d="M486.146,303.715h-27.875l-3.698,66.283h27.471h26.254c0.598-23.59,1.7-45.661,3.216-66.283H486.146z"/>
	<path fill="#EAAC3D" d="M715.023,147.265h-28.39h-18.808c3.625,13.98,7.107,29.457,10.307,46.596h30.734h24.307l-0.136-0.494
		C728.516,177.943,722.431,162.317,715.023,147.265z"/>
	<path fill="#EAAC3D" d="M714.738,303.715h-22.826c1.515,20.622,2.617,42.693,3.216,66.283h23.713h30.011l-3.699-66.283H714.738z"/>
	<path fill="#EAAC3D" d="M718.84,479.853h-24.49c-0.461,12.574-1.046,25.471-1.769,38.712c5.566,8.89,11.281,18.1,17.101,27.572
		h18.748h30.249l-3.733-66.929c-1.122,0.389-2.31,0.645-3.565,0.645H718.84z"/>
	<path fill="#F6DAA8" d="M484.353,1084.492c-2.043-0.515-4.072-1.061-6.103-1.6C480.282,1083.432,482.31,1083.978,484.353,1084.492z
		"/>
	<path fill="#F6DAA8" d="M505.062,1089.255c-0.271-0.056-0.542-0.115-0.814-0.171C504.52,1089.139,504.79,1089.199,505.062,1089.255
		z"/>
	<path fill="#F6DAA8" d="M463.141,1078.6c-1.823-0.55-3.657-1.077-5.47-1.649C459.485,1077.523,461.317,1078.05,463.141,1078.6z"/>
	<path fill="#F6DAA8" d="M531.695,1093.82c-2.063-0.299-4.128-0.589-6.182-0.914C527.567,1093.232,529.632,1093.522,531.695,1093.82
		z"/>
	<path fill="#F6DAA8" d="M438.295,1070.397c-1.273-0.464-2.522-0.974-3.791-1.448
		C435.773,1069.422,437.021,1069.932,438.295,1070.397z"/>
	<path fill="#F6DAA8" d="M553.515,1096.498c-1.895-0.185-3.776-0.417-5.666-0.625
		C549.739,1096.081,551.619,1096.314,553.515,1096.498z"/>
	<path fill="#F6DAA8" d="M578.6,1098.258c-1.239-0.056-2.49-0.07-3.725-0.135C576.111,1098.188,577.361,1098.203,578.6,1098.258z"/>
	<path fill="#F6DAA8" d="M336.895,1018.833c-0.47-0.315-0.953-0.611-1.421-0.928
		C335.942,1018.223,336.425,1018.518,336.895,1018.833z"/>
	<path fill="#F6DAA8" d="M324.272,971.478c0,13.784,1.026,27.331,2.977,40.58c2.647,1.874,5.239,3.816,7.926,5.635
		c18.07-119.988,231.01-379.392,266.539-432.018c33.289,49.303,213.237,307.279,249.95,440.494
		c8.468-5.337,16.75-10.932,24.844-16.781c1.704-12.403,2.648-25.045,2.648-37.909c0-139.104-231.216-488.565-277.442-557.032
		C555.487,482.915,324.272,832.394,324.272,971.478z"/>
	<path fill="#F6DAA8" d="M418.883,1062.789c-1.965-0.817-3.923-1.648-5.875-2.49
		C414.961,1061.141,416.918,1061.972,418.883,1062.789z"/>
	<path fill="#F6DAA8" d="M357.87,1032.081c-1.742-1.04-3.484-2.078-5.209-3.141C354.387,1030.003,356.128,1031.041,357.87,1032.081z
		"/>
	<path fill="#F6DAA8" d="M376.048,1042.447c-1.53-0.824-3.032-1.69-4.552-2.53C373.016,1040.758,374.518,1041.623,376.048,1042.447z
		"/>
	<path fill="#F6DAA8" d="M398.139,1053.577c-1.347-0.638-2.713-1.241-4.052-1.89
		C395.427,1052.336,396.792,1052.939,398.139,1053.577z"/>
	<path fill="#F6DAA8" d="M847.364,1028.925c-1.515,0.932-3.038,1.857-4.566,2.775
		C844.326,1030.782,845.847,1029.858,847.364,1028.925z"/>
	<path fill="#F6DAA8" d="M764.356,1069.398c-1.557,0.577-3.126,1.127-4.69,1.688
		C761.231,1070.525,762.799,1069.975,764.356,1069.398z"/>
	<path fill="#F6DAA8" d="M786.075,1060.715c-0.917,0.393-1.819,0.812-2.738,1.199
		C784.256,1061.526,785.157,1061.108,786.075,1060.715z"/>
	<path fill="#F6DAA8" d="M807,1051.13c-1.552,0.758-3.116,1.498-4.677,2.238C803.885,1052.628,805.446,1051.888,807,1051.13z"/>
	<path fill="#F6DAA8" d="M826.305,1041.181c-0.406,0.222-0.802,0.46-1.208,0.681C825.503,1041.641,825.9,1041.403,826.305,1041.181z
		"/>
	<path fill="#F6DAA8" d="M743.258,1076.638c-1.275,0.405-2.536,0.835-3.816,1.229
		C740.722,1077.472,741.984,1077.043,743.258,1076.638z"/>
	<path fill="#F6DAA8" d="M673.117,1093.151c-1.321,0.205-2.655,0.369-3.98,0.563
		C670.462,1093.521,671.795,1093.356,673.117,1093.151z"/>
	<path fill="#F6DAA8" d="M651.502,1095.955c-1.763,0.192-3.524,0.393-5.293,0.565
		C647.978,1096.348,649.738,1096.147,651.502,1095.955z"/>
	<path fill="#F6DAA8" d="M625.031,1098.13c-1.011,0.053-2.032,0.066-3.044,0.112C622.999,1098.196,624.02,1098.183,625.031,1098.13z
		"/>
	<path fill="#F6DAA8" d="M698.322,1088.49c-1.563,0.331-3.118,0.682-4.687,0.996C695.203,1089.172,696.758,1088.821,698.322,1088.49
		z"/>
	<path fill="#F6DAA8" d="M719.649,1083.489c-1.493,0.389-3,0.743-4.499,1.118C716.65,1084.232,718.155,1083.879,719.649,1083.489z"
		/>
	<path fill="#F6DAA8" d="M609.489,952.94l30.799-35.263l33.4-38.239c1.637-1.873,2.362-4.233,2.204-6.533
		c-0.155-2.3-1.19-4.539-3.062-6.177c-1.707-1.492-3.817-2.224-5.92-2.224l-0.612,0.022c-2.299,0.154-4.542,1.186-6.176,3.063
		l-33.402,38.237l-17.231,19.73v-61.681l30.799-35.264l33.4-38.238c1.637-1.874,2.362-4.233,2.204-6.533
		c-0.155-2.301-1.19-4.543-3.062-6.177c-1.709-1.492-3.818-2.224-5.921-2.224l-0.611,0.021c-2.299,0.155-4.542,1.188-6.176,3.062
		l-33.402,38.239l-17.231,19.73V717.11c0-2.488-1.009-4.74-2.639-6.372c-1.63-1.628-3.882-2.636-6.37-2.636
		c-2.487,0-4.74,1.008-6.368,2.636c-1.63,1.632-2.639,3.884-2.639,6.372v120.237l-17.982-20.588l-33.401-38.239
		c-1.635-1.874-3.875-2.906-6.175-3.062l-0.612-0.021c-2.102,0-4.213,0.733-5.92,2.224c-1.873,1.634-2.907,3.876-3.062,6.177
		c-0.155,2.299,0.566,4.659,2.203,6.533l33.4,38.238l31.55,36.122v61.682l-17.982-20.589l-33.401-38.237
		c-1.635-1.874-3.875-2.907-6.175-3.062l-0.614-0.019c-2.102,0-4.211,0.731-5.919,2.221c-1.873,1.638-2.907,3.877-3.062,6.177
		c-0.155,2.299,0.566,4.66,2.203,6.533l33.4,38.239l31.55,36.123v30.051v114.733c2.848,0.05,5.668,0.216,8.529,0.216
		c3.182,0,6.321-0.177,9.488-0.24V983.85V952.94z"/>
	<path fill="#EDBA6E" d="M335.174,1017.693c0.101,0.069,0.197,0.144,0.3,0.213c0.468,0.317,0.951,0.612,1.421,0.928
		c5.179,3.477,10.444,6.832,15.766,10.107c1.725,1.063,3.467,2.101,5.209,3.141c4.493,2.686,9.037,5.296,13.626,7.836
		c1.52,0.84,3.022,1.705,4.552,2.53c5.939,3.202,11.95,6.288,18.039,9.24c1.34,0.649,2.705,1.252,4.052,1.89
		c4.911,2.323,9.867,4.566,14.869,6.723c1.952,0.842,3.91,1.672,5.875,2.49c5.162,2.142,10.369,4.195,15.621,6.159
		c1.269,0.474,2.518,0.984,3.791,1.448c6.392,2.327,12.858,4.499,19.376,6.555c1.813,0.572,3.647,1.099,5.47,1.649
		c5.002,1.512,10.038,2.943,15.109,4.292c2.032,0.539,4.061,1.086,6.103,1.6c6.582,1.655,13.204,3.215,19.894,4.592
		c0.272,0.056,0.543,0.115,0.814,0.171c6.76,1.378,13.589,2.565,20.452,3.652c2.054,0.325,4.119,0.615,6.182,0.914
		c5.356,0.775,10.741,1.459,16.154,2.053c1.89,0.208,3.771,0.441,5.666,0.625c7.077,0.691,14.194,1.25,21.36,1.625
		c1.236,0.065,2.486,0.079,3.725,0.135c4.27,0.19,8.573,0.249,12.872,0.325V983.85V953.8l-31.55-36.123l-33.4-38.239
		c-1.637-1.873-2.358-4.233-2.203-6.533c0.154-2.3,1.189-4.539,3.062-6.177c1.707-1.49,3.817-2.221,5.919-2.221l0.614,0.019
		c2.3,0.154,4.54,1.188,6.175,3.062l33.401,38.237l17.982,20.589v-61.682l-31.55-36.122l-33.4-38.238
		c-1.637-1.874-2.358-4.233-2.203-6.533c0.154-2.301,1.189-4.543,3.062-6.177c1.707-1.492,3.818-2.224,5.92-2.224l0.612,0.021
		c2.3,0.155,4.54,1.188,6.175,3.062l33.401,38.239l17.982,20.588V717.11c0-2.488,1.009-4.74,2.639-6.372
		c1.629-1.628,3.881-2.636,6.368-2.636c2.488,0,4.74,1.008,6.37,2.636c1.63,1.632,2.639,3.884,2.639,6.372v119.379l17.231-19.73
		l33.402-38.239c1.634-1.874,3.877-2.906,6.176-3.062l0.611-0.021c2.103,0,4.212,0.733,5.921,2.224
		c1.872,1.634,2.906,3.876,3.062,6.177c0.157,2.299-0.568,4.659-2.204,6.533l-33.4,38.238l-30.799,35.264v61.681l17.231-19.73
		l33.402-38.237c1.634-1.876,3.877-2.909,6.176-3.063l0.612-0.022c2.104,0,4.213,0.733,5.92,2.224
		c1.872,1.638,2.906,3.877,3.062,6.177c0.157,2.299-0.568,4.66-2.204,6.533l-33.4,38.239l-30.799,35.263v30.911v114.709
		c4.172-0.082,8.353-0.126,12.498-0.316c1.013-0.047,2.033-0.059,3.044-0.112c7.105-0.371,14.158-0.929,21.177-1.61
		c1.769-0.172,3.53-0.373,5.293-0.565c5.911-0.64,11.791-1.384,17.635-2.241c1.325-0.194,2.66-0.358,3.98-0.563
		c6.891-1.071,13.73-2.3,20.518-3.665c1.568-0.314,3.124-0.665,4.687-0.996c5.646-1.195,11.258-2.49,16.828-3.884
		c1.499-0.375,3.006-0.728,4.499-1.118c6.655-1.735,13.256-3.605,19.794-5.621c1.279-0.394,2.541-0.824,3.816-1.229
		c5.515-1.752,10.983-3.605,16.408-5.552c1.564-0.561,3.133-1.111,4.69-1.688c6.388-2.37,12.725-4.849,18.98-7.484
		c0.919-0.388,1.821-0.806,2.738-1.199c5.471-2.345,10.885-4.802,16.248-7.346c1.562-0.74,3.126-1.481,4.677-2.238
		c6.099-2.977,12.148-6.04,18.097-9.268c0.406-0.221,0.802-0.459,1.208-0.681c5.573-3.044,11.06-6.223,16.493-9.482
		c1.528-0.918,3.051-1.842,4.566-2.775c1.451-0.894,2.859-1.848,4.299-2.756c-36.713-133.215-216.661-391.191-249.95-440.494
		C566.184,638.301,353.244,897.705,335.174,1017.693z"/>
	<path fill="#F6DAA8" d="M672.548,347.047h-70.987h-70.572c-0.828,19.558-1.303,40.35-1.346,62.444h52.018
		c6.576-9.751,10.838-15.944,12.09-17.756c1.806-2.617,4.783-4.178,7.962-4.178c3.179,0,6.156,1.561,7.964,4.178
		c1.25,1.811,5.513,8.005,12.089,17.756h52.069C673.809,387.472,673.365,366.652,672.548,347.047z"/>
	<path fill="#F6DAA8" d="M651.725,178.592h-50.227h-50.781c-3.875,18.094-7.562,38.919-10.744,62.697
		c0.744-0.159,1.515-0.255,2.308-0.255h59.217h59.217c1.011,0,1.969,0.181,2.896,0.439c-2.036-15.208-4.307-29.319-6.738-42.432
		C654.958,192.268,653.198,185.443,651.725,178.592z"/>
	<path fill="#F6DAA8" d="M482.044,391.784h-28.686l-3.7,66.284h32.386h26.365c-0.596-23.26-0.744-45.34-0.499-66.284H482.044z"/>
	<path fill="#F6DAA8" d="M521.535,215.645h-29.516h-26.973c-2.527,12.633-3.887,24.82-3.887,36.031l-0.005,0.303l-0.015,0.303
		l-1.652,29.648h26.659h27.177C515.546,257.741,518.342,235.695,521.535,215.645z"/>
	<path fill="#F6DAA8" d="M500.584,125.479h13.669h27.45c9.436-31.169,19.281-53.131,27.3-67.89
		C542.672,69.669,519.001,95.103,500.584,125.479z"/>
	<path fill="#F6DAA8" d="M472.456,567.923h-28.924l-2.701,48.385l-1.169,20.954c13.648-23.901,27.407-47.195,40.802-69.339H472.456z
		"/>
	<path fill="#F6DAA8" d="M718.839,391.784h-23.322c0.244,20.943,0.094,43.024-0.5,66.284h23.822h32.541
		c0.828,0,1.625,0.111,2.4,0.286l-3.714-66.57H718.839z"/>
	<path fill="#F6DAA8" d="M759.894,567.923H728.43h-5.468c13.396,22.144,27.154,45.438,40.802,69.337l-1.169-20.953L759.894,567.923z
		"/>
	<path fill="#F6DAA8" d="M742.271,251.979l-0.003-0.303c0-11.298-1.308-23.462-3.773-36.031h-29.631H681.89
		c3.194,20.05,5.989,42.097,8.213,66.285h24.635h29.2l-1.654-29.648L742.271,251.979z"/>
	<path fill="#F6DAA8" d="M639.257,59.89c3.615,9.668,6.865,19.426,9.812,29.222c4.167,10.405,8.452,22.482,12.654,36.367h24.91
		h16.461c-8.617-14.223-17.948-26.715-27.767-37.214C663.83,75.973,651.678,66.39,639.257,59.89z"/>
	<path fill="#F6DAA8" d="M242.4,762.782c-0.397-1.592-0.799-3.193-1.192-4.776C241.601,759.589,242.003,761.19,242.4,762.782z"/>
	<path fill="#F6DAA8" d="M214.443,641.69c-0.296-1.385-0.596-2.787-0.885-4.142C213.847,638.904,214.147,640.302,214.443,641.69z"/>
	<path fill="#F6DAA8" d="M259.68,829.018c0.004,0.016,0.008,0.032,0.013,0.048l0,0C259.689,829.05,259.684,829.034,259.68,829.018z"
		/>
	<path fill="#F6DAA8" d="M249.379,790.273c-0.501-1.939-1.003-3.88-1.499-5.811C248.375,786.394,248.878,788.334,249.379,790.273z"
		/>
	<path fill="#F6DAA8" d="M280.47,900.596c0.011,0.037,0.022,0.073,0.034,0.11c-0.006-0.018-0.012-0.038-0.017-0.057
		C280.481,900.634,280.476,900.613,280.47,900.596z"/>
	<path fill="#F6DAA8" d="M229.125,707.598c-0.392-1.688-0.772-3.345-1.158-5.014C228.353,704.254,228.733,705.909,229.125,707.598z"
		/>
	<path fill="#F6DAA8" d="M276.135,886.388c-5.73-19.03-11.22-38.249-16.441-57.321c5.233,19.118,10.738,38.385,16.483,57.46
		c-0.012-0.038-0.024-0.077-0.035-0.116C276.138,886.403,276.136,886.397,276.135,886.388z"/>
	<path fill="#F6DAA8" d="M210.329,622.179c-0.17-0.815-0.349-1.67-0.515-2.469C209.98,620.51,210.159,621.364,210.329,622.179z"/>
	<path fill="#F6DAA8" d="M223.773,684.192c-0.386-1.708-0.764-3.394-1.141-5.078C223.009,680.798,223.387,682.483,223.773,684.192z"
		/>
	<path fill="#F6DAA8" d="M221.243,672.894c-0.366-1.647-0.727-3.279-1.084-4.898C220.516,669.617,220.877,671.246,221.243,672.894z"
		/>
	<path fill="#F6DAA8" d="M245.899,776.69c-0.47-1.849-0.943-3.703-1.407-5.542C244.955,772.988,245.429,774.841,245.899,776.69z"/>
	<path fill="#F6DAA8" d="M226.392,695.735c-0.409-1.793-0.81-3.559-1.212-5.328C225.582,692.178,225.982,693.94,226.392,695.735z"/>
	<path fill="#F6DAA8" d="M289.447,928.816c-0.012-0.036-0.023-0.071-0.035-0.106C289.423,928.745,289.436,928.78,289.447,928.816z"
		/>
	<path fill="#F6DAA8" d="M234.946,732.296c-0.219-0.916-0.428-1.808-0.645-2.718C234.518,730.488,234.728,731.38,234.946,732.296z"
		/>
	<path fill="#F6DAA8" d="M294.055,942.671c-0.017-0.052-0.035-0.104-0.053-0.155C294.02,942.567,294.038,942.619,294.055,942.671z"
		/>
	<path fill="#F6DAA8" d="M255.832,814.81c-0.006-0.025-0.014-0.049-0.019-0.074C255.819,814.76,255.826,814.786,255.832,814.81z"/>
	<path fill="#F6DAA8" d="M252.082,800.67c-0.013-0.047-0.026-0.096-0.038-0.144C252.057,800.574,252.069,800.622,252.082,800.67z"/>
	<path fill="#F6DAA8" d="M218.872,662.15c-0.356-1.627-0.712-3.248-1.06-4.844C218.161,658.905,218.515,660.522,218.872,662.15z"/>
	<path fill="#F6DAA8" d="M238.915,748.672c-0.299-1.222-0.606-2.458-0.902-3.674C238.309,746.215,238.616,747.45,238.915,748.672z"
		/>
	<path fill="#F6DAA8" d="M216.622,651.82c-0.338-1.56-0.677-3.124-1.005-4.652C215.946,648.698,216.284,650.258,216.622,651.82z"/>
	<path fill="#F6DAA8" d="M205.189,597.031l-1.778-12.646c-0.237-0.046-0.525-0.103-0.758-0.149
		C203.383,587.966,204.233,592.263,205.189,597.031z"/>
	<path fill="#F6DAA8" d="M284.919,914.787c-0.004-0.013-0.007-0.027-0.012-0.04C284.912,914.76,284.916,914.774,284.919,914.787z"/>
	<path fill="#F6DAA8" d="M212.36,631.878c-0.246-1.168-0.5-2.365-0.739-3.506C211.86,629.514,212.115,630.71,212.36,631.878z"/>
	<path fill="#F6DAA8" d="M231.972,719.772c-0.36-1.53-0.709-3.029-1.065-4.545C231.263,716.744,231.612,718.241,231.972,719.772z"/>
	<polygon fill="#F6DAA8" points="203.436,584.39 203.432,584.389 203.436,584.39 	"/>
	<path fill="#F6DAA8" d="M203.41,584.384L203.41,584.384c0.007,0.002,0.015,0.003,0.022,0.005L203.41,584.384z"/>
	<path fill="#F6DAA8" d="M303.629,964.23c0,0.004,0,0.005,0,0.007c-0.009,0.183-0.016,0.358-0.025,0.539
		c-0.001,0.005-0.001,0.01-0.001,0.016c-0.004,0.082-0.007,0.163-0.011,0.244c0,0.009,0,0.022-0.002,0.031
		c-0.007,0.177-0.015,0.347-0.021,0.524c0,0.008-0.001,0.017-0.001,0.026c-0.004,0.078-0.005,0.156-0.009,0.233
		c0,0.011-0.001,0.026-0.002,0.037c-0.005,0.172-0.013,0.349-0.018,0.52c0,0.006,0,0.013,0,0.018
		c-0.004,0.08-0.005,0.155-0.009,0.237c0,0.012,0,0.028-0.001,0.04c-0.003,0.077-0.005,0.157-0.007,0.234
		c-0.001,0.008-0.001,0.014-0.001,0.021c-0.002,0.086-0.005,0.172-0.007,0.256c0,0.012,0,0.026-0.001,0.037
		c-0.003,0.068-0.005,0.139-0.006,0.207c0,0.022-0.001,0.048-0.002,0.071c-0.002,0.068-0.004,0.135-0.005,0.203
		c0,0.011,0,0.028,0,0.039c-0.003,0.085-0.005,0.171-0.007,0.255c0,0.004,0,0.011,0,0.014c-0.002,0.076-0.004,0.154-0.005,0.23
		c0,0.019,0,0.04-0.001,0.059c-0.001,0.068-0.003,0.128-0.005,0.196c0,0.019,0,0.037-0.001,0.056
		c-0.003,0.164-0.006,0.323-0.009,0.488c-0.001,0.022-0.001,0.047-0.001,0.069c-0.001,0.058-0.002,0.119-0.003,0.178
		c-0.001,0.023-0.001,0.05-0.001,0.072c-0.002,0.08-0.002,0.159-0.004,0.24c0.052-4.06,0.308-8.297,0.698-12.651
		c0.031-0.341,0.042-0.664,0.075-1.006c0.388-4.088,0.961-8.332,1.629-12.657c0.154-0.997,0.313-1.998,0.483-3.007
		c0.724-4.337,1.546-8.757,2.528-13.309c0.119-0.551,0.263-1.122,0.386-1.675c0.93-4.209,1.98-8.517,3.116-12.894
		c0.272-1.049,0.535-2.09,0.819-3.149c1.269-4.73,2.645-9.545,4.135-14.449c0.32-1.057,0.665-2.131,0.996-3.195
		c1.38-4.44,2.839-8.942,4.384-13.508c0.293-0.866,0.568-1.719,0.867-2.59c1.754-5.105,3.624-10.297,5.568-15.541
		c0.492-1.326,0.994-2.66,1.498-3.995c1.98-5.25,4.02-10.543,6.174-15.911c0.157-0.395,0.321-0.791,0.48-1.186
		c2.119-5.264,4.338-10.593,6.61-15.955c0.603-1.423,1.205-2.844,1.817-4.273c2.341-5.458,4.743-10.954,7.225-16.495
		c0.511-1.142,1.043-2.295,1.56-3.441c17.353-38.43,37.829-78.589,59.413-118.102l2.657-47.634
		c-92.624-24.225-177.127-41.55-213.142-48.612l154.611,206.53C327.459,857.463,305.793,919.32,303.629,964.23z"/>
	<path fill="#F6DAA8" d="M205.19,597.037l0.001,0.004c0.063,0.318,0.14,0.694,0.205,1.016c0.472,2.354,0.971,4.824,1.495,7.405
		c0.206,1.011,0.417,2.042,0.629,3.085c0.481,2.354,0.982,4.796,1.502,7.316c0.134,0.651,0.251,1.227,0.387,1.889
		C207.826,610.098,206.417,603.16,205.19,597.037z"/>
	<path fill="#EDBA6E" d="M205.19,597.037c1.227,6.122,2.636,13.061,4.219,20.715c0.002,0.011,0.005,0.022,0.006,0.031
		c0.073,0.352,0.146,0.711,0.22,1.066l0.001,0.004c0.031,0.154,0.062,0.296,0.093,0.451c0.009,0.042,0.02,0.094,0.028,0.136
		c0.005,0.022,0.008,0.04,0.013,0.062c0.014,0.068,0.029,0.141,0.043,0.208c0.166,0.8,0.345,1.654,0.515,2.469
		c0.422,2.031,0.847,4.071,1.292,6.193c0.239,1.141,0.494,2.338,0.739,3.506c0.394,1.87,0.788,3.736,1.198,5.67
		c0.289,1.354,0.589,2.756,0.885,4.142c0.387,1.81,0.773,3.618,1.173,5.478c0.328,1.528,0.667,3.092,1.005,4.652
		c0.391,1.813,0.786,3.632,1.19,5.487c0.348,1.596,0.704,3.217,1.06,4.844c0.423,1.93,0.851,3.875,1.287,5.846
		c0.357,1.619,0.718,3.251,1.084,4.898c0.457,2.052,0.92,4.126,1.389,6.22c0.377,1.683,0.755,3.37,1.141,5.078
		c0.462,2.051,0.934,4.129,1.407,6.215c0.402,1.769,0.802,3.535,1.212,5.328c0.517,2.259,1.046,4.553,1.576,6.849
		c0.386,1.669,0.766,3.326,1.158,5.014c0.584,2.517,1.184,5.072,1.782,7.629c0.356,1.516,0.705,3.015,1.065,4.545
		c0.762,3.235,1.543,6.514,2.329,9.805c0.218,0.91,0.426,1.802,0.645,2.718c1.004,4.192,2.027,8.43,3.067,12.703
		c0.296,1.216,0.603,2.452,0.902,3.674c0.758,3.098,1.518,6.199,2.293,9.334c0.393,1.583,0.795,3.184,1.192,4.776
		c0.693,2.78,1.386,5.56,2.092,8.366c0.463,1.839,0.937,3.693,1.407,5.542c0.656,2.586,1.312,5.17,1.981,7.772
		c0.495,1.931,0.998,3.871,1.499,5.811c0.418,1.614,0.826,3.215,1.248,4.835c0.005,0.017,0.005,0.02,0.01,0.038
		c0.069,0.265,0.139,0.535,0.208,0.801l0.005,0.018c0.037,0.137,0.068,0.256,0.102,0.393c0.003,0.009,0.005,0.02,0.008,0.029
		c0.031,0.12,0.063,0.244,0.094,0.364c0.007,0.026,0.015,0.054,0.022,0.08c0.031,0.12,0.06,0.234,0.092,0.353
		c0.002,0.009,0.006,0.026,0.008,0.035c0.032,0.121,0.064,0.244,0.096,0.364c0.008,0.035,0.013,0.051,0.022,0.086
		c0.063,0.239,0.132,0.503,0.195,0.742c0.009,0.035,0.018,0.07,0.027,0.104c0.175,0.674,0.351,1.342,0.526,2.011
		c0.013,0.048,0.026,0.097,0.038,0.144c0.09,0.342,0.178,0.682,0.269,1.025c0.005,0.017,0.013,0.047,0.016,0.065
		c0.071,0.267,0.137,0.517,0.207,0.784c0.003,0.008,0.007,0.025,0.009,0.033c0.034,0.129,0.069,0.261,0.102,0.39l0.002,0.005
		c0.034,0.129,0.069,0.26,0.102,0.39c0.007,0.026,0.013,0.049,0.02,0.075c0.141,0.534,0.28,1.059,0.42,1.594
		c0.011,0.044,0.027,0.105,0.039,0.148c0.123,0.466,0.245,0.927,0.368,1.393c0.016,0.06,0.028,0.107,0.044,0.168
		c0.024,0.086,0.049,0.185,0.073,0.271c0.011,0.043,0.023,0.089,0.035,0.133c0.027,0.103,0.051,0.196,0.079,0.299
		c0.009,0.034,0.022,0.083,0.031,0.118c0.03,0.112,0.054,0.2,0.083,0.313c0.012,0.043,0.023,0.087,0.035,0.13
		c0.021,0.079,0.043,0.159,0.063,0.238c0.018,0.069,0.04,0.153,0.058,0.221c0.021,0.079,0.04,0.15,0.06,0.228
		c0.016,0.06,0.032,0.119,0.048,0.179c0.022,0.078,0.043,0.159,0.064,0.237c0.02,0.078,0.037,0.143,0.059,0.221
		c0.016,0.06,0.037,0.14,0.053,0.2c0.023,0.086,0.046,0.172,0.069,0.258c0.014,0.053,0.028,0.105,0.041,0.157
		c0.026,0.095,0.051,0.191,0.077,0.286c0.016,0.06,0.027,0.101,0.044,0.162c0.02,0.079,0.046,0.174,0.066,0.25
		c0.016,0.061,0.03,0.113,0.046,0.174c0.037,0.139,0.073,0.271,0.11,0.408l0.004,0.016c0.121,0.45,0.236,0.881,0.356,1.331
		l0.001,0.005c0.037,0.138,0.075,0.276,0.111,0.415c0.007,0.026,0.014,0.052,0.02,0.078c0.035,0.13,0.069,0.26,0.104,0.389
		l0.004,0.013c0.035,0.131,0.068,0.25,0.102,0.381c0.011,0.042,0.026,0.095,0.037,0.138c0.027,0.103,0.053,0.198,0.081,0.303
		c0.012,0.043,0.027,0.101,0.038,0.144c0.026,0.095,0.045,0.168,0.07,0.263c0.004,0.012,0.007,0.026,0.011,0.037
		c0.005,0.025,0.013,0.049,0.019,0.074c0.005,0.019,0.01,0.038,0.015,0.055c0.028,0.104,0.059,0.222,0.087,0.325
		c0.009,0.035,0.015,0.055,0.024,0.09c0.028,0.104,0.055,0.205,0.083,0.309c0.012,0.043,0.028,0.104,0.04,0.148
		c0.028,0.104,0.05,0.187,0.078,0.292c0.012,0.043,0.027,0.103,0.04,0.146c0.027,0.103,0.057,0.211,0.084,0.315
		c0.009,0.035,0.018,0.069,0.027,0.104c0.033,0.122,0.06,0.221,0.092,0.343c0.007,0.026,0.021,0.076,0.028,0.101
		c0.157,0.59,0.314,1.17,0.473,1.76c0.002,0.008,0.002,0.008,0.005,0.016c0.037,0.139,0.074,0.274,0.111,0.413
		c0.007,0.026,0.016,0.055,0.022,0.081c0.031,0.112,0.066,0.242,0.097,0.356c0.009,0.035,0.015,0.057,0.024,0.091
		c0.031,0.113,0.064,0.235,0.095,0.347c0.009,0.035,0.015,0.057,0.024,0.091c0.033,0.122,0.068,0.249,0.101,0.371
		c0.005,0.017,0.005,0.023,0.011,0.04c0.035,0.13,0.073,0.271,0.108,0.402c0.005,0.016,0.007,0.027,0.013,0.046
		c0.035,0.13,0.07,0.26,0.106,0.391c0.005,0.016,0.01,0.037,0.015,0.055c0.031,0.112,0.064,0.238,0.095,0.351
		c0.012,0.044,0.024,0.088,0.037,0.132c0.027,0.104,0.053,0.201,0.082,0.305c0.009,0.035,0.019,0.073,0.029,0.108
		c0.037,0.139,0.071,0.262,0.108,0.401l0.007,0.023c0.362,1.339,0.724,2.669,1.089,4.009c0.003,0.008,0.001,0.003,0.004,0.011
		c0.038,0.14,0.077,0.281,0.114,0.419c0.003,0.009,0.008,0.031,0.011,0.039c0.156,0.575,0.313,1.145,0.471,1.72
		c0.004,0.016,0.008,0.032,0.013,0.048l0,0c5.221,19.072,10.711,38.291,16.441,57.321c0.002,0.009,0.004,0.015,0.007,0.023
		c0.011,0.039,0.023,0.078,0.035,0.116c0.703,2.334,1.41,4.667,2.12,6.993l0.004,0.015c0.36,1.179,0.72,2.353,1.081,3.53
		c0.008,0.026,0.013,0.042,0.021,0.068c0.039,0.13,0.08,0.261,0.12,0.391c0.003,0.009,0.003,0.01,0.006,0.018
		c0.039,0.13,0.086,0.281,0.126,0.41c0.005,0.017,0.01,0.034,0.015,0.051c0.043,0.138,0.085,0.275,0.128,0.413l0.002,0.005
		c0.042,0.138,0.084,0.273,0.126,0.412c0.005,0.017,0.011,0.035,0.016,0.051c0.085,0.277,0.165,0.537,0.25,0.813
		c0.008,0.026,0.016,0.052,0.024,0.079c0.04,0.129,0.081,0.261,0.122,0.391c0.003,0.009,0.007,0.024,0.01,0.032
		c0.04,0.13,0.079,0.257,0.119,0.387c0.002,0.003,0.003,0.006,0.004,0.009c0.005,0.017,0.011,0.038,0.016,0.053
		c0.005,0.018,0.011,0.038,0.017,0.057c0.175,0.568,0.35,1.133,0.527,1.701c0.002,0.008,0.003,0.011,0.005,0.019
		c0.088,0.285,0.175,0.564,0.263,0.848c0.005,0.017,0.016,0.053,0.022,0.07c0.04,0.129,0.076,0.244,0.116,0.374
		c0.005,0.016,0.014,0.044,0.019,0.061c0.037,0.122,0.071,0.23,0.11,0.351c0.011,0.034,0.024,0.077,0.035,0.111
		c0.037,0.121,0.075,0.243,0.112,0.364c0.005,0.016,0.007,0.023,0.013,0.04c0.037,0.121,0.079,0.254,0.117,0.375
		c0.008,0.027,0.017,0.056,0.025,0.081c0.04,0.129,0.075,0.24,0.115,0.37c0.005,0.016,0.015,0.046,0.02,0.063
		c0.038,0.121,0.071,0.227,0.109,0.346c0.011,0.035,0.021,0.068,0.032,0.102c0.037,0.121,0.082,0.263,0.121,0.384
		c0.005,0.017,0.005,0.016,0.01,0.033c0.089,0.285,0.18,0.578,0.27,0.863c0.003,0.009,0.002,0.008,0.005,0.016
		c0.04,0.13,0.08,0.256,0.121,0.385c0.005,0.017,0.013,0.041,0.018,0.059c0.135,0.43,0.274,0.874,0.409,1.303
		c0.007,0.026,0.016,0.051,0.024,0.077c0.038,0.121,0.071,0.225,0.108,0.345c0.015,0.042,0.032,0.099,0.046,0.142
		c0.029,0.094,0.059,0.185,0.088,0.28c0.016,0.052,0.033,0.105,0.049,0.156c0.029,0.095,0.057,0.178,0.086,0.272
		c0.019,0.06,0.037,0.119,0.057,0.178c0.024,0.078,0.048,0.156,0.073,0.233c0.022,0.069,0.043,0.138,0.065,0.207
		c0.021,0.069,0.048,0.151,0.069,0.219c0.022,0.069,0.042,0.132,0.064,0.199c0.029,0.095,0.057,0.181,0.086,0.275
		c0.015,0.043,0.027,0.083,0.04,0.125c0.029,0.095,0.062,0.196,0.091,0.29c0.016,0.052,0.036,0.112,0.051,0.164
		c0.027,0.086,0.055,0.17,0.082,0.256c0.018,0.06,0.035,0.112,0.054,0.172c0.025,0.077,0.052,0.163,0.076,0.24
		c0.022,0.069,0.039,0.124,0.061,0.194c0.081,0.257,0.169,0.536,0.251,0.791c0.007,0.026,0.009,0.029,0.017,0.056
		c0.043,0.137,0.09,0.286,0.134,0.423c0.027,0.086,0.053,0.167,0.08,0.253c0.016,0.051,0.036,0.112,0.052,0.164
		c0.001,0.004,0.003,0.007,0.004,0.011c0.005,0.013,0.008,0.027,0.012,0.04c0.022,0.067,0.043,0.133,0.065,0.201
		c0.019,0.06,0.037,0.117,0.056,0.177c0.026,0.077,0.048,0.15,0.073,0.227c0.022,0.069,0.041,0.132,0.063,0.199
		c0.022,0.069,0.047,0.149,0.069,0.217c0.022,0.068,0.046,0.141,0.068,0.21c0.025,0.077,0.045,0.14,0.069,0.218
		c0.022,0.068,0.046,0.143,0.068,0.212c0.019,0.06,0.035,0.109,0.053,0.168c0.034,0.102,0.071,0.219,0.103,0.322
		c0.005,0.017,0.014,0.042,0.019,0.059c0.038,0.12,0.077,0.24,0.115,0.36c0.011,0.034,0.02,0.062,0.031,0.096
		c0.033,0.102,0.064,0.205,0.098,0.307c0.016,0.051,0.03,0.095,0.047,0.146c0.03,0.093,0.062,0.195,0.092,0.289
		c0.014,0.042,0.026,0.084,0.041,0.127c0.035,0.111,0.069,0.214,0.104,0.324c0.011,0.035,0.024,0.073,0.034,0.108
		c0.03,0.094,0.063,0.196,0.093,0.29c0.016,0.051,0.031,0.097,0.048,0.148c0.038,0.12,0.074,0.229,0.112,0.349
		c0.005,0.017,0.015,0.047,0.02,0.064c0.044,0.136,0.086,0.266,0.13,0.403c0.003,0.009,0.005,0.02,0.009,0.029
		c0.09,0.281,0.185,0.573,0.274,0.854c0.017,0.051,0.033,0.1,0.049,0.151c0.033,0.102,0.06,0.187,0.093,0.29
		c0.007,0.025,0.024,0.073,0.031,0.099c0.037,0.111,0.068,0.207,0.103,0.318c0.019,0.06,0.041,0.13,0.061,0.188
		c0.025,0.077,0.046,0.145,0.071,0.222c0.022,0.069,0.046,0.14,0.068,0.208c0.025,0.077,0.046,0.144,0.071,0.22
		c0.018,0.06,0.042,0.13,0.06,0.189c0.027,0.085,0.056,0.171,0.083,0.257c0.016,0.051,0.032,0.097,0.048,0.148
		c0.027,0.084,0.059,0.181,0.086,0.265c0.019,0.06,0.038,0.12,0.058,0.179c0.03,0.093,0.056,0.172,0.086,0.265
		c0.014,0.042,0.032,0.097,0.045,0.14c0.031,0.094,0.058,0.178,0.089,0.272c0.019,0.059,0.037,0.116,0.058,0.175
		c0.024,0.077,0.054,0.168,0.079,0.244c0.02,0.06,0.038,0.118,0.058,0.177c0.025,0.077,0.048,0.148,0.073,0.225
		c0.022,0.068,0.047,0.143,0.069,0.21c0.03,0.094,0.053,0.166,0.084,0.26c0.014,0.042,0.033,0.101,0.048,0.143
		c0.029,0.094,0.055,0.169,0.085,0.262c0.019,0.06,0.039,0.122,0.059,0.181c0.013,0.043,0.03,0.095,0.044,0.137
		c0.119,0.366,0.236,0.725,0.355,1.089l0.002,0.005c0.039,0.119,0.082,0.249,0.121,0.367c0.005,0.016,0.009,0.029,0.015,0.046
		c0.031,0.093,0.057,0.173,0.088,0.266c0.018,0.059,0.038,0.122,0.059,0.181c0.031,0.093,0.06,0.185,0.091,0.278
		c0.011,0.034,0.023,0.072,0.035,0.105c0.005,0.018,0.011,0.035,0.016,0.053c0.012,0.035,0.023,0.07,0.035,0.106
		c0.016,0.047,0.031,0.096,0.048,0.144c0.014,0.042,0.029,0.091,0.044,0.133c0.027,0.085,0.059,0.18,0.086,0.264
		c0.02,0.06,0.033,0.101,0.053,0.16c0.025,0.076,0.055,0.169,0.08,0.245c0.022,0.068,0.037,0.113,0.058,0.181
		c0.028,0.085,0.057,0.169,0.084,0.255c0.015,0.042,0.033,0.101,0.048,0.143c0.03,0.093,0.057,0.172,0.087,0.265
		c0.016,0.051,0.036,0.11,0.052,0.161c0.031,0.093,0.059,0.177,0.09,0.271c0.014,0.042,0.031,0.093,0.045,0.135
		c0.027,0.084,0.058,0.176,0.086,0.261c0.022,0.068,0.041,0.124,0.063,0.192c0.026,0.077,0.053,0.159,0.078,0.236
		c0.014,0.042,0.029,0.09,0.043,0.132c0.034,0.101,0.062,0.188,0.096,0.289c0.008,0.026,0.022,0.066,0.03,0.091
		c0.159,0.482,0.314,0.952,0.473,1.433c0.015,0.043,0.026,0.078,0.04,0.12c0.031,0.092,0.066,0.198,0.096,0.292
		c0.014,0.042,0.026,0.076,0.039,0.118c0.031,0.092,0.062,0.185,0.092,0.279c0.014,0.042,0.033,0.099,0.047,0.141
		c0.034,0.101,0.066,0.197,0.1,0.3c0.011,0.033,0.023,0.068,0.034,0.101c0.033,0.101,0.066,0.198,0.099,0.299
		c0.015,0.042,0.026,0.077,0.04,0.119c0.033,0.101,0.068,0.205,0.101,0.305c0.011,0.034,0.021,0.065,0.032,0.099
		c0.035,0.101,0.073,0.216,0.106,0.317c0.011,0.034,0.016,0.05,0.027,0.083c0.04,0.119,0.078,0.232,0.117,0.349
		c0.003,0.009,0.007,0.022,0.011,0.031c0.038,0.118,0.083,0.251,0.122,0.369c0.005,0.016,0.011,0.032,0.016,0.049
		c0.042,0.126,0.079,0.236,0.121,0.362c0.003,0.009,0.009,0.026,0.011,0.035c0.04,0.117,0.082,0.245,0.122,0.362
		c0.011,0.034,0.016,0.045,0.026,0.079c0.255,0.764,0.518,1.549,0.775,2.312c0.005,0.016,0.01,0.031,0.016,0.048
		c0.042,0.125,0.078,0.233,0.121,0.359c0.003,0.009,0.012,0.037,0.015,0.045c0.034,0.101,0.067,0.198,0.101,0.299
		c0.016,0.049,0.03,0.09,0.048,0.141c0.031,0.091,0.065,0.193,0.096,0.285c0.012,0.033,0.025,0.071,0.036,0.105
		c0.033,0.101,0.066,0.197,0.101,0.298c0.014,0.042,0.026,0.08,0.04,0.121c0.037,0.109,0.073,0.218,0.11,0.326
		c0.005,0.016,0.009,0.026,0.015,0.042c0.014,0.04,0.027,0.08,0.04,0.121c0.018,0.051,0.036,0.103,0.053,0.155
		c0.009,0.024,0.016,0.049,0.026,0.073c0.007,0.026,0.018,0.059,0.027,0.083c0.037,0.109,0.07,0.209,0.107,0.317
		c0.012,0.034,0.023,0.067,0.034,0.101c0.035,0.1,0.069,0.203,0.102,0.303c0.011,0.033,0.024,0.068,0.035,0.101
		c0.037,0.109,0.073,0.218,0.11,0.326c0.004,0.008,0.005,0.014,0.008,0.023c0.043,0.125,0.086,0.254,0.129,0.378
		c0.002,0.009,0.005,0.015,0.007,0.024c0.263,0.776,0.53,1.559,0.793,2.334c0.009,0.025,0.013,0.036,0.022,0.06
		c0.033,0.101,0.069,0.207,0.104,0.306c0.011,0.034,0.026,0.077,0.037,0.111c0.034,0.1,0.065,0.189,0.099,0.289
		c0.012,0.034,0.028,0.082,0.039,0.116c0.04,0.116,0.075,0.217,0.114,0.334c0.005,0.016,0.01,0.031,0.016,0.048
		c0.037,0.108,0.079,0.232,0.116,0.34c0.011,0.033,0.016,0.048,0.027,0.08c0.035,0.101,0.073,0.212,0.108,0.313
		c0.011,0.033,0.024,0.071,0.035,0.104c0.037,0.108,0.068,0.195,0.104,0.302c0.008,0.025,0.022,0.065,0.031,0.09
		c0.085,0.25,0.166,0.485,0.251,0.734c0.003,0.008,0.014,0.038,0.016,0.047c0.043,0.125,0.08,0.235,0.123,0.359
		c0.003,0.008,0.005,0.015,0.007,0.024c0.04,0.116,0.086,0.246,0.125,0.362c0.012,0.033,0.02,0.058,0.032,0.091
		c0.261,0.762,0.523,1.515,0.785,2.276c0.003,0.008,0.012,0.033,0.015,0.042c0.043,0.123,0.082,0.238,0.125,0.361
		c0.003,0.008,0.009,0.026,0.012,0.035c0.037,0.107,0.073,0.21,0.111,0.317c0.014,0.042,0.027,0.079,0.042,0.121
		c0.031,0.09,0.062,0.183,0.094,0.272c0.014,0.042,0.031,0.091,0.046,0.132c0.031,0.091,0.059,0.171,0.09,0.261
		c0.017,0.049,0.037,0.105,0.054,0.155c0.032,0.09,0.061,0.176,0.093,0.267c0.014,0.042,0.028,0.08,0.042,0.122
		c0.032,0.091,0.064,0.184,0.096,0.275c0.015,0.04,0.031,0.091,0.046,0.132c0.037,0.107,0.067,0.192,0.104,0.3
		c0.003,0.008,0.011,0.031,0.014,0.038c0.043,0.124,0.083,0.238,0.125,0.362c0.004,0.007,0.012,0.032,0.015,0.04
		c0.044,0.123,0.079,0.226,0.122,0.349c0.008,0.025,0.024,0.069,0.033,0.093c0.037,0.108,0.07,0.203,0.108,0.311
		c0.003,0.007,0.009,0.024,0.011,0.033c0.13,0.369,0.26,0.738,0.388,1.108c0.006,0.016,0.011,0.031,0.017,0.047
		c0.031,0.091,0.066,0.188,0.097,0.279c0.018,0.049,0.03,0.085,0.048,0.134c0.031,0.09,0.06,0.174,0.092,0.263
		c0.015,0.041,0.035,0.099,0.048,0.139c0.032,0.09,0.059,0.164,0.09,0.254c0.018,0.049,0.036,0.101,0.053,0.15
		c0.031,0.09,0.069,0.197,0.101,0.287c0.012,0.033,0.024,0.069,0.037,0.101c0.035,0.099,0.065,0.186,0.1,0.285
		c0.014,0.04,0.03,0.086,0.045,0.126c0.035,0.099,0.069,0.196,0.103,0.294c0.012,0.032,0.021,0.059,0.032,0.092
		c0.035,0.098,0.071,0.201,0.106,0.299c0.012,0.033,0.026,0.071,0.037,0.104c0.038,0.106,0.072,0.203,0.11,0.309
		c0.009,0.026,0.018,0.051,0.027,0.075c0.037,0.106,0.072,0.207,0.111,0.313c0.011,0.033,0.024,0.068,0.035,0.101
		c0.038,0.106,0.077,0.213,0.113,0.319c0.004,0.008,0.004,0.008,0.005,0.017c0.041,0.113,0.09,0.25,0.13,0.366
		c0.012,0.032,0.018,0.048,0.029,0.081c0.084,0.237,0.169,0.476,0.253,0.713c0.003,0.008,0.007,0.021,0.01,0.029
		c0.076,0.212,0.149,0.419,0.225,0.63c0.017,0.049,0.031,0.089,0.048,0.137c0.027,0.073,0.054,0.153,0.08,0.226
		c0.021,0.058,0.042,0.116,0.062,0.173c0.024,0.065,0.051,0.143,0.074,0.207c0.026,0.073,0.048,0.137,0.075,0.21
		c0.02,0.058,0.045,0.126,0.065,0.183c0.026,0.073,0.053,0.148,0.079,0.221c0.024,0.065,0.04,0.11,0.062,0.175
		c0.027,0.073,0.058,0.161,0.084,0.234c0.024,0.066,0.044,0.122,0.068,0.187c0.023,0.065,0.049,0.138,0.072,0.203
		s0.048,0.134,0.071,0.199c0.026,0.073,0.051,0.142,0.078,0.215c0.023,0.065,0.046,0.13,0.069,0.194
		c0.023,0.066,0.048,0.136,0.071,0.201c0.027,0.073,0.046,0.128,0.072,0.201c0.023,0.065,0.05,0.141,0.074,0.205
		c0.026,0.073,0.046,0.131,0.073,0.204c0.023,0.065,0.046,0.13,0.069,0.195c0.024,0.065,0.048,0.134,0.071,0.199
		c0.027,0.073,0.054,0.15,0.08,0.223c0.024,0.064,0.044,0.121,0.067,0.185c0.023,0.066,0.048,0.135,0.072,0.201
		c0.024,0.064,0.048,0.134,0.071,0.199c0.033,0.09,0.063,0.174,0.095,0.261c0.015,0.041,0.035,0.095,0.048,0.136
		c0.05,0.138,0.096,0.265,0.145,0.403c0.002-0.08,0.002-0.16,0.004-0.24c0-0.022,0-0.049,0.001-0.072
		c0.001-0.059,0.002-0.12,0.003-0.178c0-0.022,0-0.048,0.001-0.069c0.003-0.165,0.006-0.324,0.009-0.488
		c0.001-0.019,0.001-0.037,0.001-0.056c0.002-0.069,0.004-0.129,0.005-0.196c0.001-0.019,0.001-0.04,0.001-0.059
		c0.002-0.076,0.004-0.154,0.005-0.23c0-0.003,0-0.01,0-0.014c0.002-0.084,0.005-0.17,0.007-0.255c0-0.011,0-0.028,0-0.039
		c0.002-0.068,0.004-0.135,0.005-0.203c0.001-0.023,0.002-0.049,0.002-0.071c0.002-0.068,0.004-0.139,0.006-0.207
		c0.001-0.011,0.001-0.025,0.001-0.037c0.002-0.084,0.005-0.17,0.007-0.256c0-0.007,0-0.013,0.001-0.021
		c0.003-0.077,0.005-0.157,0.007-0.234c0.001-0.012,0.001-0.028,0.001-0.04c0.004-0.081,0.005-0.156,0.009-0.237
		c0-0.005,0-0.012,0-0.018c0.005-0.171,0.013-0.348,0.018-0.52c0.001-0.012,0.002-0.026,0.002-0.037
		c0.004-0.077,0.005-0.155,0.009-0.233c0-0.008,0.001-0.017,0.001-0.026c0.006-0.176,0.014-0.346,0.021-0.524
		c0.002-0.009,0.002-0.022,0.002-0.031c0.004-0.081,0.007-0.162,0.011-0.244c0-0.005,0-0.01,0.001-0.016
		c0.008-0.181,0.016-0.356,0.025-0.539c0-0.002,0-0.004,0-0.007c2.164-44.91,23.83-106.767,54.419-173.309l-154.611-206.53
		l-0.001-0.001c-0.009-0.002-0.016-0.003-0.026-0.005l0,0l1.778,12.646L205.19,597.037z"/>
	<path fill="#EAAC3D" d="M764.578,174.14c3.517,11.002,5.971,22.477,7.194,34.322c175.753,68.698,300.255,239.695,300.255,439.784
		c0,260.693-211.333,472.027-472.027,472.027S127.972,908.939,127.972,648.246c0-201.448,126.209-373.391,303.856-441.153
		c1.322-11.85,3.864-23.325,7.481-34.315C241.011,239.771,98.247,427.336,98.247,648.246C98.247,925.356,322.889,1150,600,1150
		s501.753-224.644,501.753-501.754C1101.754,428.786,960.847,242.264,764.578,174.14z"/>
</g>
</svg>
